<svg xmlns="http://www.w3.org/2000/svg" width="1000" height="220" viewBox="0 0 1000 220" role="img" aria-label="github-secrets-watcher">
  <defs>
    <linearGradient id="bg" x1="0" y1="0" x2="1" y2="1">
      <stop offset="0" stop-color="#11192a"/>
      <stop offset="1" stop-color="#06111f"/>
    </linearGradient>
    <radialGradient id="glow" cx="0.85" cy="0.1" r="0.8">
      <stop offset="0" stop-color="#38bdf8" stop-opacity="0.20"/>
      <stop offset="1" stop-color="#38bdf8" stop-opacity="0"/>
    </radialGradient>
  </defs>
  <rect width="1000" height="220" rx="20" fill="url(#bg)"/>
  <rect width="1000" height="220" rx="20" fill="url(#glow)"/>
  <rect x="0.5" y="0.5" width="999" height="219" rx="20" fill="none" stroke="#ffffff" stroke-opacity="0.08"/>
  <rect x="0" y="0" width="7" height="220" rx="3.5" fill="#38bdf8"/>
  <g transform="translate(46 60)">
    <rect width="100" height="100" rx="22" fill="#ffffff"/>
    <rect x="0.5" y="0.5" width="99" height="99" rx="21.5" fill="none" stroke="#0b1220" stroke-opacity="0.10"/>
    <g transform="translate(18 18) scale(2.6667)" fill="#181717"><path fill-rule="evenodd" clip-rule="evenodd" d="M12 .297c-6.63 0-12 5.373-12 12 0 5.303 3.438 9.8 8.205 11.385.6.113.82-.258.82-.577 0-.285-.01-1.04-.015-2.04-3.338.724-4.042-1.61-4.042-1.61C4.422 18.07 3.633 17.7 3.633 17.7c-1.087-.744.084-.729.084-.729 1.205.084 1.838 1.236 1.838 1.236 1.07 1.835 2.809 1.305 3.495.998.108-.776.417-1.305.76-1.605-2.665-.3-5.466-1.332-5.466-5.93 0-1.31.465-2.38 1.235-3.22-.135-.303-.54-1.523.105-3.176 0 0 1.005-.322 3.3 1.23.96-.267 1.98-.399 3-.405 1.02.006 2.04.138 3 .405 2.28-1.552 3.285-1.23 3.285-1.23.645 1.653.24 2.873.12 3.176.765.84 1.23 1.91 1.23 3.22 0 4.61-2.805 5.625-5.475 5.92.42.36.81 1.096.81 2.22 0 1.606-.015 2.896-.015 3.286 0 .315.21.69.825.57C20.565 22.092 24 17.592 24 12.297c0-6.627-5.373-12-12-12"/></g>
  </g>
  <text x="176" y="104" font-family="ui-sans-serif, system-ui, -apple-system, Segoe UI, Roboto, sans-serif" font-size="38" font-weight="800" fill="#e8eef7">github-secrets-watcher</text>
  <text x="178" y="138" font-family="ui-sans-serif, system-ui, -apple-system, Segoe UI, Roboto, sans-serif" font-size="16" fill="#9fb3c8">audit git history for committed env / config / secret files</text>
  <text x="178" y="176" font-family="ui-monospace, SFMono-Regular, Menlo, monospace" font-size="13" fill="#6b7f95">C++20 · libcurl · libgit2 · read-only · text / json / csv</text>
</svg>
